{
	"asset":{
		"generator":"Khronos glTF Blender I/O v5.1.20",
		"version":"2.0"
	},
	"scene":0,
	"scenes":[
		{
			"name":"Scene",
			"nodes":[
				0
			]
		}
	],
	"nodes":[
		{
			"mesh":0,
			"name":"female_walk_rest"
		}
	],
	"materials":[
		{
			"doubleSided":true,
			"name":"female_vat_vertex_color",
			"pbrMetallicRoughness":{
				"baseColorFactor":[
					0.800000011920929,
					0.800000011920929,
					0.800000011920929,
					1
				],
				"metallicFactor":0,
				"roughnessFactor":0.5
			}
		}
	],
	"meshes":[
		{
			"name":"female_walk_rest",
			"primitives":[
				{
					"attributes":{
						"POSITION":0,
						"NORMAL":1,
						"TEXCOORD_0":2,
						"TEXCOORD_1":3
					},
					"indices":4,
					"material":0
				}
			]
		}
	],
	"accessors":[
		{
			"bufferView":0,
			"componentType":5126,
			"count":981,
			"max":[
				0.2968437671661377,
				1.7999999523162842,
				0.24160726368427277
			],
			"min":[
				-0.2968437671661377,
				0,
				-0.24160726368427277
			],
			"type":"VEC3"
		},
		{
			"bufferView":1,
			"componentType":5126,
			"count":981,
			"type":"VEC3"
		},
		{
			"bufferView":2,
			"componentType":5126,
			"count":981,
			"type":"VEC2"
		},
		{
			"bufferView":3,
			"componentType":5126,
			"count":981,
			"type":"VEC2"
		},
		{
			"bufferView":4,
			"componentType":5123,
			"count":5358,
			"type":"SCALAR"
		}
	],
	"bufferViews":[
		{
			"buffer":0,
			"byteLength":11772,
			"byteOffset":0,
			"target":34962
		},
		{
			"buffer":0,
			"byteLength":11772,
			"byteOffset":11772,
			"target":34962
		},
		{
			"buffer":0,
			"byteLength":7848,
			"byteOffset":23544,
			"target":34962
		},
		{
			"buffer":0,
			"byteLength":7848,
			"byteOffset":31392,
			"target":34962
		},
		{
			"buffer":0,
			"byteLength":10716,
			"byteOffset":39240,
			"target":34963
		}
	],
	"buffers":[
		{
			"byteLength":49956,
			"uri":"female_walk_rest.bin"
		}
	]
}
