{
	"asset":{
		"generator":"Khronos glTF Blender I/O v5.1.20",
		"version":"2.0"
	},
	"scene":0,
	"scenes":[
		{
			"name":"Scene",
			"nodes":[
				0
			]
		}
	],
	"nodes":[
		{
			"mesh":0,
			"name":"male_walk_rest"
		}
	],
	"materials":[
		{
			"doubleSided":true,
			"name":"male_vat_vertex_color",
			"pbrMetallicRoughness":{
				"baseColorFactor":[
					0.800000011920929,
					0.800000011920929,
					0.800000011920929,
					1
				],
				"metallicFactor":0,
				"roughnessFactor":0.5
			}
		}
	],
	"meshes":[
		{
			"name":"male_walk_rest",
			"primitives":[
				{
					"attributes":{
						"POSITION":0,
						"NORMAL":1,
						"TEXCOORD_0":2,
						"TEXCOORD_1":3
					},
					"indices":4,
					"material":0
				}
			]
		}
	],
	"accessors":[
		{
			"bufferView":0,
			"componentType":5126,
			"count":1055,
			"max":[
				0.32154321670532227,
				1.7999999523162842,
				0.24673984944820404
			],
			"min":[
				-0.32154321670532227,
				0,
				-0.24673984944820404
			],
			"type":"VEC3"
		},
		{
			"bufferView":1,
			"componentType":5126,
			"count":1055,
			"type":"VEC3"
		},
		{
			"bufferView":2,
			"componentType":5126,
			"count":1055,
			"type":"VEC2"
		},
		{
			"bufferView":3,
			"componentType":5126,
			"count":1055,
			"type":"VEC2"
		},
		{
			"bufferView":4,
			"componentType":5123,
			"count":5562,
			"type":"SCALAR"
		}
	],
	"bufferViews":[
		{
			"buffer":0,
			"byteLength":12660,
			"byteOffset":0,
			"target":34962
		},
		{
			"buffer":0,
			"byteLength":12660,
			"byteOffset":12660,
			"target":34962
		},
		{
			"buffer":0,
			"byteLength":8440,
			"byteOffset":25320,
			"target":34962
		},
		{
			"buffer":0,
			"byteLength":8440,
			"byteOffset":33760,
			"target":34962
		},
		{
			"buffer":0,
			"byteLength":11124,
			"byteOffset":42200,
			"target":34963
		}
	],
	"buffers":[
		{
			"byteLength":53324,
			"uri":"male_walk_rest.bin"
		}
	]
}
